<svg xmlns="http://www.w3.org/2000/svg" 
width="310" height="310" viewBox="0 0 27.21 27.2" 
shape-rendering="geometricPrecision" 
image-rendering="optimizeQuality" 
fill-rule="evenodd" >
<circle cx="13.6" cy="13.6" r="13.6" fill="#c12223"/>
<path d="M14.39.02A13.6 13.6 0 0 1 27.21 13.6c0 7.51-6.09 13.59-13.6 13.59a14.14 14.14 0 0 1-2.93-.31h.03L14.39.02z" fill="#006da1"/><path d="M3.43 12.45V5.78h1.41v5.59h.83v1.08H3.43zm2.78 0V5.78h2.24v1.08h-.84v1.39h.84v1.08h-.84v2.04h.84v1.08H6.21zm3.38 0l-.87-6.67h1.33l.32 4.44.33-4.44h1.33l-.88 6.67H9.59zm3.65 6.68v-6.67h2.24v1.07h-.84v1.39h.84V16h-.84v3.13h-1.4zm2.77 0v-6.67h2.24v1.07h-.83v1.39h.83V16h-.83v2.04h.83v1.09h-2.24zm2.77-2.68h1.41v1.3c0 .12.02.21.05.26s.09.07.16.07.12-.02.16-.06c.04-.03.06-.08.06-.14v-.13-.99c0-.13-.02-.23-.06-.29s-.11-.12-.22-.18l-.95-.53c-.21-.12-.37-.27-.47-.46-.09-.18-.14-.43-.14-.74v-.77c0-.6.09-.98.27-1.14s.63-.23 1.34-.23c.67 0 1.11.07 1.31.21s.3.39.3.75v.41.99h-1.39v-.95c0-.13-.02-.22-.05-.27-.03-.04-.09-.06-.17-.06-.07 0-.12.02-.15.07s-.05.13-.05.26v.63c0 .13.02.22.06.28.03.07.11.13.22.19l.87.47c.24.12.41.27.51.44.1.18.15.41.15.71v1.52a2.85 2.85 0 0 1-.04.5c-.03.12-.07.21-.14.29-.08.12-.21.2-.39.25-.18.04-.52.06-1.02.06-.73 0-1.18-.08-1.36-.24-.18-.17-.27-.55-.27-1.14v-1.34zm4.33 2.68v-5.57h-.73v-1.1h2.85v1.1h-.72v5.57h-1.4zM14.4.02l-3.69 26.87-.71-.17L13.58 0h.35l.47.02z" 
fill="#fefefe"/></svg>